<svg width="24" height="24" viewBox="0 0 24 24" fill="none" xmlns="http://www.w3.org/2000/svg">
<mask id="mask0_858_2179" style="mask-type:alpha" maskUnits="userSpaceOnUse" x="0" y="0" width="24" height="24">
<rect width="24" height="24" fill="#D9D9D9"/>
</mask>
<g mask="url(#mask0_858_2179)">
<path d="M11.9998 21.5C11.7872 21.5 11.6091 21.4281 11.4655 21.2843C11.3219 21.1406 11.2501 20.9625 11.2501 20.75V3.25C11.2501 3.0375 11.322 2.85938 11.4658 2.71563C11.6097 2.57188 11.7879 2.5 12.0004 2.5C12.213 2.5 12.3911 2.57188 12.5347 2.71563C12.6783 2.85938 12.7501 3.0375 12.7501 3.25V20.75C12.7501 20.9625 12.6782 21.1406 12.5344 21.2843C12.3906 21.4281 12.2124 21.5 11.9998 21.5ZM15.7693 16.75C15.5132 16.75 15.2986 16.6633 15.1253 16.4901C14.9521 16.3169 14.8655 16.1022 14.8655 15.8461V8.15383C14.8655 7.89774 14.9521 7.68308 15.1253 7.50985C15.2986 7.33662 15.5132 7.25 15.7693 7.25H16.4616C16.7177 7.25 16.9324 7.33662 17.1056 7.50985C17.2788 7.68308 17.3655 7.89774 17.3655 8.15383V15.8461C17.3655 16.1022 17.2788 16.3169 17.1056 16.4901C16.9324 16.6633 16.7177 16.75 16.4616 16.75H15.7693ZM7.53862 16.75C7.28253 16.75 7.06787 16.6633 6.89464 16.4901C6.72139 16.3169 6.63477 16.1022 6.63477 15.8461V8.15383C6.63477 7.89774 6.72139 7.68308 6.89464 7.50985C7.06787 7.33662 7.28253 7.25 7.53862 7.25H8.23089C8.48699 7.25 8.70166 7.33662 8.87489 7.50985C9.04812 7.68308 9.13474 7.89774 9.13474 8.15383V15.8461C9.13474 16.1022 9.04812 16.3169 8.87489 16.4901C8.70166 16.6633 8.48699 16.75 8.23089 16.75H7.53862Z" fill="black"/>
</g>
</svg>
