<svg width="12" height="12" viewBox="0 0 12 12" fill="none" xmlns="http://www.w3.org/2000/svg">
<path d="M6.00016 7.16671L1.91683 11.25C1.76405 11.4028 1.56961 11.4792 1.3335 11.4792C1.09739 11.4792 0.902941 11.4028 0.750163 11.25C0.597385 11.0973 0.520996 10.9028 0.520996 10.6667C0.520996 10.4306 0.597385 10.2362 0.750163 10.0834L4.8335 6.00004L0.750163 1.91671C0.597385 1.76393 0.520996 1.56949 0.520996 1.33337C0.520996 1.09726 0.597385 0.902819 0.750163 0.750041C0.902941 0.597263 1.09739 0.520874 1.3335 0.520874C1.56961 0.520874 1.76405 0.597263 1.91683 0.750041L6.00016 4.83337L10.0835 0.750041C10.2363 0.597263 10.4307 0.520874 10.6668 0.520874C10.9029 0.520874 11.0974 0.597263 11.2502 0.750041C11.4029 0.902819 11.4793 1.09726 11.4793 1.33337C11.4793 1.56949 11.4029 1.76393 11.2502 1.91671L7.16683 6.00004L11.2502 10.0834C11.4029 10.2362 11.4793 10.4306 11.4793 10.6667C11.4793 10.9028 11.4029 11.0973 11.2502 11.25C11.0974 11.4028 10.9029 11.4792 10.6668 11.4792C10.4307 11.4792 10.2363 11.4028 10.0835 11.25L6.00016 7.16671Z" fill="#ED4D8B"/>
</svg>
