<svg width="16" height="16" viewBox="0 0 16 16" fill="none" xmlns="http://www.w3.org/2000/svg">
<path d="M5.33331 5.33334V3.46668C5.33331 2.71994 5.33331 2.34657 5.47864 2.06136C5.60647 1.81047 5.81044 1.6065 6.06133 1.47867C6.34654 1.33334 6.71991 1.33334 7.46665 1.33334H12.5333C13.28 1.33334 13.6534 1.33334 13.9386 1.47867C14.1895 1.6065 14.3935 1.81047 14.5213 2.06136C14.6666 2.34657 14.6666 2.71994 14.6666 3.46668V8.53334C14.6666 9.28008 14.6666 9.65345 14.5213 9.93866C14.3935 10.1895 14.1895 10.3935 13.9386 10.5214C13.6534 10.6667 13.28 10.6667 12.5333 10.6667H10.6666M3.46665 14.6667H8.53331C9.28005 14.6667 9.65342 14.6667 9.93863 14.5214C10.1895 14.3935 10.3935 14.1895 10.5213 13.9387C10.6666 13.6534 10.6666 13.2801 10.6666 12.5333V7.46668C10.6666 6.71994 10.6666 6.34657 10.5213 6.06136C10.3935 5.81047 10.1895 5.6065 9.93863 5.47867C9.65342 5.33334 9.28005 5.33334 8.53331 5.33334H3.46665C2.71991 5.33334 2.34654 5.33334 2.06133 5.47867C1.81044 5.6065 1.60647 5.81047 1.47864 6.06136C1.33331 6.34657 1.33331 6.71994 1.33331 7.46668V12.5333C1.33331 13.2801 1.33331 13.6534 1.47864 13.9387C1.60647 14.1895 1.81044 14.3935 2.06133 14.5214C2.34654 14.6667 2.71991 14.6667 3.46665 14.6667Z" stroke="#A4A7AE" stroke-width="1.33333" stroke-linecap="round" stroke-linejoin="round"/>
</svg>
