<svg width="24" height="24" viewBox="0 0 24 24" fill="none" xmlns="http://www.w3.org/2000/svg">
<mask id="mask0_858_2161" style="mask-type:alpha" maskUnits="userSpaceOnUse" x="0" y="0" width="24" height="24">
<rect width="24" height="24" fill="#D9D9D9"/>
</mask>
<g mask="url(#mask0_858_2161)">
<path d="M3.88465 20.5771C3.46287 20.5771 3.10423 20.4294 2.80873 20.1338C2.51323 19.8383 2.36548 19.4797 2.36548 19.0579V4.59635C2.36548 4.17456 2.51323 3.81591 2.80873 3.5204C3.10423 3.2249 3.46287 3.07715 3.88465 3.07715H10.3462C10.768 3.07715 11.1267 3.2249 11.4222 3.5204C11.7177 3.81591 11.8654 4.17456 11.8654 4.59635V7.07715H20.1155C20.5372 7.07715 20.8959 7.2249 21.1914 7.5204C21.4869 7.81591 21.6347 8.17456 21.6347 8.59635V19.0579C21.6347 19.4797 21.4869 19.8383 21.1914 20.1338C20.8959 20.4294 20.5372 20.5771 20.1155 20.5771H3.88465ZM3.86543 19.0772H10.3655V16.5771H3.86543V19.0772ZM3.86543 15.0771H10.3655V12.5771H3.86543V15.0771ZM3.86543 11.0771H10.3655V8.57712H3.86543V11.0771ZM3.86543 7.07715H10.3655V4.57712H3.86543V7.07715ZM11.8654 19.0772H20.1347V8.57712H11.8654V19.0772ZM14.8077 12.5771C14.5952 12.5771 14.4171 12.5052 14.2734 12.3614C14.1296 12.2176 14.0578 12.0394 14.0578 11.8268C14.0578 11.6142 14.1296 11.4361 14.2734 11.2925C14.4171 11.1489 14.5952 11.0771 14.8077 11.0771H17.0001C17.2126 11.0771 17.3907 11.1491 17.5344 11.2929C17.6782 11.4367 17.75 11.6149 17.75 11.8275C17.75 12.0401 17.6782 12.2181 17.5344 12.3617C17.3907 12.5053 17.2126 12.5771 17.0001 12.5771H14.8077ZM14.8077 16.5771C14.5952 16.5771 14.4171 16.5052 14.2734 16.3614C14.1296 16.2176 14.0578 16.0394 14.0578 15.8268C14.0578 15.6142 14.1296 15.4361 14.2734 15.2925C14.4171 15.1489 14.5952 15.0771 14.8077 15.0771H17.0001C17.2126 15.0771 17.3907 15.1491 17.5344 15.2929C17.6782 15.4367 17.75 15.6149 17.75 15.8275C17.75 16.0401 17.6782 16.2181 17.5344 16.3617C17.3907 16.5053 17.2126 16.5771 17.0001 16.5771H14.8077Z" fill="black"/>
</g>
</svg>
