<svg width="24" height="24" viewBox="0 0 24 24" fill="none" xmlns="http://www.w3.org/2000/svg">
<mask id="mask0_858_2173" style="mask-type:alpha" maskUnits="userSpaceOnUse" x="0" y="0" width="24" height="24">
<rect width="24" height="24" fill="#D9D9D9"/>
</mask>
<g mask="url(#mask0_858_2173)">
<path d="M5.05768 20.5C4.55254 20.5 4.12498 20.325 3.775 19.975C3.425 19.625 3.25 19.1974 3.25 18.6923V5.30773C3.25 4.80259 3.425 4.37502 3.775 4.02502C4.12498 3.67502 4.55254 3.50002 5.05768 3.50002H13.4616C13.6741 3.50002 13.8522 3.57193 13.9959 3.71575C14.1397 3.85957 14.2115 4.03777 14.2115 4.25035C14.2115 4.46295 14.1397 4.64104 13.9959 4.78463C13.8522 4.92821 13.6741 5 13.4616 5H5.05768C4.96792 5 4.8942 5.02885 4.8365 5.08655C4.7788 5.14425 4.74995 5.21798 4.74995 5.30773V18.6923C4.74995 18.782 4.7788 18.8557 4.8365 18.9134C4.8942 18.9711 4.96792 19 5.05768 19H18.4423C18.532 19 18.6057 18.9711 18.6634 18.9134C18.7211 18.8557 18.75 18.782 18.75 18.6923V10.2884C18.75 10.0759 18.8219 9.8978 18.9657 9.75405C19.1095 9.6103 19.2877 9.53842 19.5003 9.53842C19.7129 9.53842 19.8909 9.6103 20.0345 9.75405C20.1781 9.8978 20.2499 10.0759 20.2499 10.2884V18.6923C20.2499 19.1974 20.0749 19.625 19.7249 19.975C19.3749 20.325 18.9474 20.5 18.4423 20.5H5.05768ZM7.86503 10.25C7.65242 10.25 7.47433 10.3219 7.33075 10.4656C7.18717 10.6094 7.11538 10.7875 7.11538 11V16C7.11538 16.2125 7.18727 16.3906 7.33107 16.5344C7.47489 16.6781 7.65309 16.75 7.86567 16.75C8.07828 16.75 8.25637 16.6781 8.39995 16.5344C8.54353 16.3906 8.61533 16.2125 8.61533 16V11C8.61533 10.7875 8.54343 10.6094 8.39963 10.4656C8.25581 10.3219 8.07761 10.25 7.86503 10.25ZM11.7496 7.25002C11.537 7.25002 11.3589 7.32189 11.2154 7.46563C11.0718 7.60938 11 7.7875 11 8V16C11 16.2125 11.0719 16.3906 11.2157 16.5344C11.3595 16.6781 11.5377 16.75 11.7503 16.75C11.9629 16.75 12.141 16.6781 12.2846 16.5344C12.4282 16.3906 12.5 16.2125 12.5 16V8C12.5 7.7875 12.428 7.60938 12.2842 7.46563C12.1404 7.32189 11.9622 7.25002 11.7496 7.25002ZM15.6342 13.25C15.4216 13.25 15.2436 13.3219 15.1 13.4657C14.9564 13.6094 14.8846 13.7875 14.8846 14V16C14.8846 16.2125 14.9565 16.3906 15.1003 16.5344C15.2441 16.6781 15.4223 16.75 15.6349 16.75C15.8475 16.75 16.0256 16.6781 16.1692 16.5344C16.3128 16.3906 16.3846 16.2125 16.3846 16V14C16.3846 13.7875 16.3126 13.6094 16.1688 13.4657C16.025 13.3219 15.8468 13.25 15.6342 13.25ZM17.25 6.49998H16C15.7875 6.49998 15.6094 6.42807 15.4656 6.28425C15.3219 6.14043 15.25 5.96223 15.25 5.74965C15.25 5.53705 15.3219 5.35896 15.4656 5.21537C15.6094 5.07179 15.7875 5 16 5H17.25V3.74998C17.25 3.53749 17.3219 3.35938 17.4657 3.21563C17.6095 3.07188 17.7877 3 18.0003 3C18.2129 3 18.391 3.07188 18.5346 3.21563C18.6782 3.35938 18.75 3.53749 18.75 3.74998V5H20C20.2125 5 20.3906 5.07191 20.5344 5.21573C20.6781 5.35953 20.75 5.53772 20.75 5.75032C20.75 5.96291 20.6781 6.14099 20.5344 6.28457C20.3906 6.42817 20.2125 6.49998 20 6.49998H18.75V7.74998C18.75 7.96248 18.6781 8.1406 18.5343 8.28435C18.3904 8.4281 18.2122 8.49998 17.9997 8.49998C17.7871 8.49998 17.609 8.4281 17.4654 8.28435C17.3218 8.1406 17.25 7.96248 17.25 7.74998V6.49998Z" fill="black"/>
</g>
</svg>
