<svg width="24" height="24" viewBox="0 0 24 24" fill="none" xmlns="http://www.w3.org/2000/svg">
<mask id="mask0_858_2402" style="mask-type:alpha" maskUnits="userSpaceOnUse" x="0" y="0" width="24" height="24">
<rect width="24" height="24" fill="#D9D9D9"/>
</mask>
<g mask="url(#mask0_858_2402)">
<path d="M6.44435 16.8329C6.14948 16.6688 5.9184 16.4474 5.7511 16.1687C5.58378 15.89 5.50012 15.5775 5.50012 15.231V10.8926L3.504 9.78873C3.3399 9.69515 3.21939 9.58129 3.14247 9.44716C3.06556 9.31302 3.0271 9.16398 3.0271 9.00003C3.0271 8.8361 3.06556 8.68715 3.14247 8.55318C3.21939 8.4192 3.3399 8.30541 3.504 8.21183L11.1391 4.05183C11.2746 3.97647 11.4142 3.92116 11.5578 3.88591C11.7015 3.85064 11.8489 3.83301 12.0001 3.83301C12.1513 3.83301 12.2987 3.85064 12.4423 3.88591C12.586 3.92116 12.7257 3.97638 12.8615 4.05158L21.4846 8.74451C21.6385 8.82784 21.7564 8.94056 21.8385 9.08266C21.9205 9.22474 21.9615 9.37805 21.9615 9.54258V15.4426C21.9615 15.655 21.8897 15.8332 21.7458 15.9769C21.602 16.1207 21.4238 16.1925 21.2112 16.1925C20.9986 16.1925 20.8206 16.1207 20.677 15.9769C20.5334 15.8332 20.4616 15.655 20.4616 15.4426V9.83103L18.5001 10.8926V15.231C18.5001 15.5775 18.4164 15.89 18.2491 16.1687C18.0818 16.4474 17.8507 16.6688 17.5558 16.8329L12.8636 19.3694C12.7264 19.4463 12.586 19.5024 12.4423 19.5377C12.2987 19.573 12.1513 19.5906 12.0001 19.5906C11.8489 19.5906 11.7015 19.573 11.5578 19.5377C11.4142 19.5024 11.2738 19.4463 11.1367 19.3694L6.44435 16.8329ZM11.8847 12.6426C11.9296 12.6682 11.9697 12.6811 12.0049 12.6811C12.0402 12.6811 12.0802 12.6682 12.1251 12.6426L18.8405 9.00028L12.1251 5.36761C12.0802 5.34196 12.0402 5.32913 12.0049 5.32913C11.9697 5.32913 11.9296 5.34196 11.8847 5.36761L5.15972 9.00028L11.8847 12.6426ZM11.8751 18.0714C11.92 18.097 11.9616 18.1099 12.0001 18.1099C12.0386 18.1099 12.0802 18.097 12.1251 18.0714L16.8558 15.5156C16.9071 15.4836 16.944 15.4467 16.9664 15.405C16.9889 15.3634 17.0001 15.3105 17.0001 15.2464V11.6926L12.8789 13.956C12.7418 14.0329 12.5995 14.089 12.452 14.1243C12.3046 14.1595 12.1539 14.1772 12.0001 14.1772C11.8462 14.1772 11.6956 14.1595 11.5482 14.1243C11.4007 14.089 11.2584 14.0329 11.1212 13.956L7.0001 11.6926V15.2464C7.0001 15.2977 7.01132 15.3473 7.03375 15.3954C7.0562 15.4435 7.09307 15.4836 7.14435 15.5156L11.8751 18.0714Z" fill="#ED4D8B"/>
</g>
</svg>
