<svg width="25" height="24" viewBox="0 0 25 24" fill="none" xmlns="http://www.w3.org/2000/svg">
<mask id="mask0_858_2408" style="mask-type:alpha" maskUnits="userSpaceOnUse" x="0" y="0" width="25" height="24">
<rect x="0.5" width="24" height="24" fill="#D9D9D9"/>
</mask>
<g mask="url(#mask0_858_2408)">
<path d="M14.5999 19.5462L19.7422 14.4038C19.8807 14.2654 20.0547 14.1946 20.2643 14.1913C20.4739 14.1882 20.6512 14.259 20.796 14.4038C20.9409 14.5487 21.0133 14.7244 21.0133 14.9308C21.0133 15.1372 20.9409 15.3128 20.796 15.4577L15.8806 20.3731C15.6999 20.5538 15.4973 20.6878 15.273 20.775C15.0486 20.8622 14.8242 20.9058 14.5999 20.9058C14.3755 20.9058 14.1512 20.8622 13.9268 20.775C13.7025 20.6878 13.4999 20.5538 13.3191 20.3731L11.223 18.2769C11.0845 18.1385 11.0137 17.9644 11.0105 17.7548C11.0073 17.5452 11.0781 17.368 11.223 17.2231C11.3679 17.0782 11.5435 17.0058 11.7499 17.0058C11.9563 17.0058 12.1319 17.0782 12.2768 17.2231L14.5999 19.5462ZM6.77296 12.45L5.69411 15.4981C5.63 15.6532 5.53705 15.7756 5.41526 15.8654C5.29346 15.9551 5.14988 16 4.98451 16C4.7076 16 4.49638 15.8885 4.35086 15.6654C4.20536 15.4423 4.18005 15.2058 4.27491 14.9558L8.47876 3.53268C8.54286 3.36729 8.6435 3.23717 8.78069 3.1423C8.91785 3.04743 9.07425 3 9.24989 3H9.83834C10.014 3 10.1704 3.04743 10.3076 3.1423C10.4447 3.23717 10.5454 3.36729 10.6095 3.53268L14.7941 14.9308C14.889 15.1975 14.8595 15.4423 14.7056 15.6654C14.5518 15.8885 14.3313 16 14.0441 16C13.8685 16 13.7114 15.951 13.573 15.8529C13.4345 15.7548 13.3332 15.6231 13.2691 15.4577L12.2345 12.45H6.77296ZM7.29986 11.05H11.7576L9.54989 4.8615H9.46911L7.29986 11.05Z" fill="black"/>
</g>
</svg>
