<svg width="24" height="24" viewBox="0 0 24 24" fill="none" xmlns="http://www.w3.org/2000/svg">
<mask id="mask0_858_2414" style="mask-type:alpha" maskUnits="userSpaceOnUse" x="0" y="0" width="24" height="24">
<rect width="24" height="24" fill="#D9D9D9"/>
</mask>
<g mask="url(#mask0_858_2414)">
<path d="M4.3077 20.5C3.80257 20.5 3.375 20.325 3.025 19.975C2.675 19.625 2.5 19.1974 2.5 18.6923V5.3077C2.5 4.80257 2.675 4.375 3.025 4.025C3.375 3.675 3.80257 3.5 4.3077 3.5H19.6923C20.1974 3.5 20.625 3.675 20.975 4.025C21.325 4.375 21.5 4.80257 21.5 5.3077V18.6923C21.5 19.1974 21.325 19.625 20.975 19.975C20.625 20.325 20.1974 20.5 19.6923 20.5H4.3077ZM4.3077 19H19.6923C19.7692 19 19.8397 18.9679 19.9038 18.9038C19.9679 18.8397 20 18.7692 20 18.6923V5.3077C20 5.23077 19.9679 5.16024 19.9038 5.09613C19.8397 5.03203 19.7692 4.99998 19.6923 4.99998H4.3077C4.23077 4.99998 4.16024 5.03203 4.09613 5.09613C4.03202 5.16024 3.99998 5.23077 3.99998 5.3077V18.6923C3.99998 18.7692 4.03202 18.8397 4.09613 18.9038C4.16024 18.9679 4.23077 19 4.3077 19ZM8.99998 16.75C9.21279 16.75 9.39099 16.6782 9.53458 16.5346C9.67816 16.391 9.74995 16.2128 9.74995 16C9.74995 15.7872 9.67816 15.609 9.53458 15.4654C9.39099 15.3218 9.21279 15.25 8.99998 15.25H5.99998C5.78716 15.25 5.60896 15.3218 5.46538 15.4654C5.32179 15.609 5.25 15.7872 5.25 16C5.25 16.2128 5.32179 16.391 5.46538 16.5346C5.60896 16.6782 5.78716 16.75 5.99998 16.75H8.99998ZM14.55 12.5308L13.6519 11.6327C13.5032 11.484 13.3275 11.4106 13.125 11.4125C12.9224 11.4144 12.7468 11.4929 12.5981 11.6481C12.4596 11.7968 12.3894 11.9724 12.3875 12.175C12.3856 12.3775 12.459 12.5532 12.6077 12.7019L13.9173 14.0115C14.0981 14.1923 14.309 14.2827 14.55 14.2827C14.791 14.2827 15.0019 14.1923 15.1827 14.0115L18.6173 10.5769C18.766 10.4282 18.842 10.2541 18.8452 10.0548C18.8484 9.85543 18.7724 9.67819 18.6173 9.52308C18.4621 9.36794 18.2839 9.29038 18.0827 9.29038C17.8814 9.29038 17.7032 9.36794 17.5481 9.52308L14.55 12.5308ZM8.99998 12.75C9.21279 12.75 9.39099 12.6782 9.53458 12.5346C9.67816 12.391 9.74995 12.2128 9.74995 12C9.74995 11.7872 9.67816 11.609 9.53458 11.4654C9.39099 11.3218 9.21279 11.25 8.99998 11.25H5.99998C5.78716 11.25 5.60896 11.3218 5.46538 11.4654C5.32179 11.609 5.25 11.7872 5.25 12C5.25 12.2128 5.32179 12.391 5.46538 12.5346C5.60896 12.6782 5.78716 12.75 5.99998 12.75H8.99998ZM8.99998 8.74995C9.21279 8.74995 9.39099 8.67816 9.53458 8.53458C9.67816 8.39099 9.74995 8.21279 9.74995 7.99998C9.74995 7.78716 9.67816 7.60896 9.53458 7.46538C9.39099 7.32179 9.21279 7.25 8.99998 7.25H5.99998C5.78716 7.25 5.60896 7.32179 5.46538 7.46538C5.32179 7.60896 5.25 7.78716 5.25 7.99998C5.25 8.21279 5.32179 8.39099 5.46538 8.53458C5.60896 8.67816 5.78716 8.74995 5.99998 8.74995H8.99998Z" fill="black"/>
</g>
</svg>
