<svg width="24" height="24" viewBox="0 0 24 24" fill="none" xmlns="http://www.w3.org/2000/svg">
<mask id="mask0_858_2333" style="mask-type:alpha" maskUnits="userSpaceOnUse" x="0" y="0" width="24" height="24">
<rect width="24" height="24" fill="#D9D9D9"/>
</mask>
<g mask="url(#mask0_858_2333)">
<path d="M12 13.65L13.25 14.6173C13.4205 14.7544 13.6012 14.7586 13.7923 14.6298C13.9833 14.5009 14.0435 14.3294 13.973 14.1153L13.4692 12.5231L14.9134 11.4058C15.0775 11.2686 15.1243 11.0987 15.0538 10.8962C14.9833 10.6936 14.841 10.5923 14.6269 10.5923H12.9654L12.4269 8.94618C12.3564 8.73206 12.2141 8.625 12 8.625C11.7859 8.625 11.6436 8.73206 11.5731 8.94618L11.0346 10.5923H9.34808C9.13398 10.5923 8.99423 10.6936 8.92885 10.8962C8.86347 11.0987 8.91283 11.2686 9.07693 11.4058L10.4808 12.5231L9.97693 14.15C9.90641 14.3641 9.95993 14.5355 10.1375 14.6644C10.3151 14.7932 10.4942 14.789 10.675 14.6519L12 13.65ZM4.3077 19.5C3.80898 19.5 3.38303 19.3233 3.02983 18.9701C2.67661 18.6169 2.5 18.191 2.5 17.6923V14.9519C2.5 14.7878 2.54712 14.6423 2.64135 14.5154C2.73558 14.3885 2.86154 14.3019 3.01923 14.2558C3.45769 14.0519 3.81411 13.7494 4.08847 13.3481C4.36283 12.9468 4.5 12.4974 4.5 12C4.5 11.5025 4.36283 11.0532 4.08847 10.6519C3.81411 10.2506 3.45769 9.94803 3.01923 9.74418C2.86154 9.69803 2.73558 9.61149 2.64135 9.48457C2.54712 9.35764 2.5 9.21213 2.5 9.04803V6.3077C2.5 5.80898 2.67661 5.38302 3.02983 5.02982C3.38303 4.67661 3.80898 4.5 4.3077 4.5H19.6923C20.191 4.5 20.6169 4.67661 20.9701 5.02982C21.3233 5.38302 21.5 5.80898 21.5 6.3077V9.04803C21.5 9.21213 21.4528 9.35764 21.3586 9.48457C21.2644 9.61149 21.1384 9.69803 20.9807 9.74418C20.5423 9.94803 20.1858 10.2506 19.9115 10.6519C19.6371 11.0532 19.5 11.5025 19.5 12C19.5 12.4974 19.6371 12.9468 19.9115 13.3481C20.1858 13.7494 20.5423 14.0519 20.9807 14.2558C21.1384 14.3019 21.2644 14.3885 21.3586 14.5154C21.4528 14.6423 21.5 14.7878 21.5 14.9519V17.6923C21.5 18.191 21.3233 18.6169 20.9701 18.9701C20.6169 19.3233 20.191 19.5 19.6923 19.5H4.3077ZM4.3077 18H19.6923C19.782 18 19.8557 17.9711 19.9134 17.9134C19.9711 17.8557 20 17.782 20 17.6923V15.45C19.3833 15.0833 18.8958 14.5958 18.5375 13.9875C18.1791 13.3791 18 12.7166 18 12C18 11.2833 18.1791 10.6208 18.5375 10.0125C18.8958 9.40414 19.3833 8.91664 20 8.54998V6.3077C20 6.21795 19.9711 6.14423 19.9134 6.08652C19.8557 6.02882 19.782 5.99998 19.6923 5.99998H4.3077C4.21795 5.99998 4.14423 6.02882 4.08653 6.08652C4.02883 6.14423 3.99998 6.21795 3.99998 6.3077V8.54998C4.61664 8.91664 5.10414 9.40414 5.46248 10.0125C5.82081 10.6208 5.99998 11.2833 5.99998 12C5.99998 12.7166 5.82081 13.3791 5.46248 13.9875C5.10414 14.5958 4.61664 15.0833 3.99998 15.45V17.6923C3.99998 17.782 4.02883 17.8557 4.08653 17.9134C4.14423 17.9711 4.21795 18 4.3077 18Z" fill="black"/>
</g>
</svg>
