<svg width="25" height="24" viewBox="0 0 25 24" fill="none" xmlns="http://www.w3.org/2000/svg">
<mask id="mask0_858_2345" style="mask-type:alpha" maskUnits="userSpaceOnUse" x="0" y="0" width="25" height="24">
<rect x="0.5" width="24" height="24" fill="#D9D9D9"/>
</mask>
<g mask="url(#mask0_858_2345)">
<path d="M16.7154 16.3389L20.4385 12.6158C20.5872 12.4671 20.7628 12.3937 20.9654 12.3957C21.1679 12.3976 21.3435 12.4761 21.4923 12.6312C21.6307 12.7823 21.7 12.9585 21.7 13.1599C21.7 13.3613 21.6307 13.5363 21.4923 13.6851L17.373 17.8197C17.1923 18.0004 16.9814 18.0908 16.7404 18.0908C16.4993 18.0908 16.2884 18.0004 16.1077 17.8197L14.0634 15.7754C13.925 15.637 13.8573 15.4629 13.8605 15.2533C13.8638 15.0437 13.9346 14.8697 14.073 14.7312C14.2115 14.5928 14.3861 14.5235 14.5967 14.5235C14.8074 14.5235 14.9809 14.5928 15.1172 14.7312L16.7154 16.3389ZM16.7154 8.72359L20.4385 5.00049C20.5872 4.85177 20.7628 4.77838 20.9654 4.78031C21.1679 4.78223 21.3435 4.86075 21.4923 5.01586C21.6307 5.16691 21.7 5.34314 21.7 5.54454C21.7 5.74592 21.6307 5.92097 21.4923 6.06969L17.373 10.2043C17.1923 10.3851 16.9814 10.4755 16.7404 10.4755C16.4993 10.4755 16.2884 10.3851 16.1077 10.2043L14.0634 8.16009C13.925 8.02162 13.8573 7.84759 13.8605 7.63799C13.8638 7.42837 13.9346 7.25433 14.073 7.11586C14.2115 6.97741 14.3861 6.90819 14.5967 6.90819C14.8074 6.90819 14.9809 6.97741 15.1172 7.11586L16.7154 8.72359ZM3.75 16.5581C3.5375 16.5581 3.35938 16.4862 3.21563 16.3424C3.07188 16.1986 3 16.0204 3 15.8078C3 15.5952 3.07188 15.4171 3.21563 15.2735C3.35938 15.13 3.5375 15.0582 3.75 15.0582H10.75C10.9625 15.0582 11.1406 15.1301 11.2844 15.2739C11.4281 15.4177 11.5 15.5959 11.5 15.8085C11.5 16.0211 11.4281 16.1992 11.2844 16.3427C11.1406 16.4863 10.9625 16.5581 10.75 16.5581H3.75ZM3.75 8.94276C3.5375 8.94276 3.35938 8.87085 3.21563 8.72704C3.07188 8.58324 3 8.40504 3 8.19244C3 7.97985 3.07188 7.80177 3.21563 7.65819C3.35938 7.5146 3.5375 7.44281 3.75 7.44281H10.75C10.9625 7.44281 11.1406 7.51471 11.2844 7.65851C11.4281 7.80233 11.5 7.98053 11.5 8.19311C11.5 8.40571 11.4281 8.5838 11.2844 8.72739C11.1406 8.87097 10.9625 8.94276 10.75 8.94276H3.75Z" fill="black"/>
</g>
</svg>
